<svg xmlns="http://www.w3.org/2000/svg" width="512" height="512" viewBox="0 0 512 512">
  <defs>
    <linearGradient id="bg" x1="0" y1="0" x2="1" y2="1">
      <stop offset="0" stop-color="#E23B4E"/>
      <stop offset="1" stop-color="#B81F33"/>
    </linearGradient>
    <linearGradient id="roof" x1="0" y1="0" x2="0" y2="1">
      <stop offset="0" stop-color="#ffffff"/>
      <stop offset="1" stop-color="#ffe3e6"/>
    </linearGradient>
  </defs>
  <rect width="512" height="512" rx="112" fill="url(#bg)"/>
  <!-- ground -->
  <ellipse cx="256" cy="398" rx="150" ry="30" fill="rgba(0,0,0,0.15)"/>
  <!-- store body -->
  <rect x="156" y="250" width="200" height="130" rx="12" fill="#F7F3EC"/>
  <!-- door -->
  <rect x="236" y="300" width="40" height="80" rx="6" fill="#2C2C2B"/>
  <!-- windows -->
  <rect x="178" y="296" width="40" height="40" rx="6" fill="#2783DE"/>
  <rect x="294" y="296" width="40" height="40" rx="6" fill="#2783DE"/>
  <!-- awning -->
  <path d="M140 250 L372 250 L356 214 L156 214 Z" fill="#46A171"/>
  <g fill="#3c8c60">
    <rect x="156" y="214" width="36" height="36"/>
    <rect x="228" y="214" width="36" height="36"/>
    <rect x="300" y="214" width="36" height="36"/>
  </g>
  <!-- roof -->
  <path d="M256 118 L388 214 L124 214 Z" fill="url(#roof)"/>
  <!-- flag -->
  <rect x="252" y="96" width="6" height="46" fill="#2C2C2B"/>
  <rect x="258" y="98" width="44" height="18" fill="#E23B4E"/>
  <rect x="258" y="116" width="44" height="6" fill="#ffffff"/>
</svg>
